# xmcd CD database file
#
# Track frame offsets:
#	150
#	14651
#	30365
#	47091
#	62181
#	80776
#	102166
#	115505
#	129521
#
# Disc length: 2001 seconds
#
# Revision: 0
# Processed by: cddbd v1.5.1PL0 Copyright (c) Steve Scherf et al.
# Submitted via: CDex 1.50beta10
#
DISCID=7007cf09
DTITLE=Various Artist - CENEStunes Smooth Jazz
DYEAR=2004
DGENRE=Jazz
TTITLE0=You Make Me Feel So Young
TTITLE1=Kick Back, Relax, Unwind
TTITLE2=On a Clear Day
TTITLE3=They Can't Take That Away From Me
TTITLE4=Rainbow Connection
TTITLE5=Feelin' Groovy
TTITLE6=The Best Is Yet to Come
TTITLE7=On the Sunny Side of the Street
TTITLE8=Summer Day
EXTD=YEAR: 2004
EXTT0=
EXTT1=
EXTT2=
EXTT3=
EXTT4=
EXTT5=
EXTT6=
EXTT7=
EXTT8=
PLAYORDER=
